<svg width="361.3625px" height="88.39999999999999px" xmlns="http://www.w3.org/2000/svg" viewBox="69.31875 30.800000000000004 361.3625 88.39999999999999" style="background: rgba(0, 0, 0, 0);" preserveAspectRatio="xMidYMid"><defs><filter id="editing-raise" x="-100%" y="-100%" width="300%" height="300%"><feFlood flood-color="#ccc" result="flood-surface"></feFlood><feFlood flood-color="#777" result="flood-extrude"></feFlood><feMorphology operator="erode" in="SourceAlpha" radius="1" result="erode"></feMorphology><feConvolveMatrix in="erode" result="shadow" order="11,8" divisor="1" kernelMatrix="0 0 0 1 1 1 1 1 0 0 0 0 0 1 0 0 0 0 0 1 0 0 0 0 1 0 0 0 0 0 1 0 0 0 0 1 0 0 0 0 0 1 0 0 0 0 1 0 0 0 0 0 1 0 0 0 0 0 1 0 0 0 1 0 0 0 0 0 0 1 1 0 1 1 0 0 0 0 0 0 0 0 1 0 0 0 0 0"></feConvolveMatrix><feOffset dx="0" dy="4" in="shadow" result="offset"></feOffset><feGaussianBlur in="offset" stdDeviation="0.2" result="blur"></feGaussianBlur><feComposite operator="in" in="flood-extrude" in2="blur" result="extrude"></feComposite><feMorphology operator="erode" in="SourceAlpha" radius="1" result="erode2"></feMorphology><feConvolveMatrix in="erode2" result="out" order="4,4" divisor="1" kernelMatrix="0 1 1 0 1 0 0 1 1 0 0 1 0 1 1 0 "></feConvolveMatrix><feComposite operator="in" in="flood-surface" in2="out" result="text"></feComposite><feMerge><feMergeNode in="extrude"></feMergeNode><feMergeNode in="text"></feMergeNode></feMerge></filter></defs><g filter="url(#editing-raise)"><g transform="translate(125.67380768060684, 95.0150032043457)"><path d="M4.39 0L-0.56 0L7.22-28.38L16.21-28.38L18.19-12.17L26.19-28.38L33.71-28.38L34.49-7.14L34.49-7.14Q34.66-2.92 36.72-1.63L36.72-1.63L36.72-1.63Q36.25-0.77 34.87 0.04L34.87 0.04L34.87 0.04Q33.50 0.86 31.67 0.86L31.67 0.86L31.67 0.86Q29.84 0.86 28.77 0.34L28.77 0.34L28.77 0.34Q27.69-0.17 27.09-1.03L27.09-1.03L27.09-1.03Q26.02-2.58 26.02-5.55L26.02-5.55L26.02-18.83L17.54 0L12.21 0L9.20-19.31L4.39 0ZM52.25-4.86L52.25-4.86L52.25-4.86Q50.01-2.54 45.92-2.54L45.92-2.54L45.92-2.54Q40.81-2.54 39.73-6.28L39.73-6.28L39.73-6.28Q39.39-7.40 39.39-8.64L39.39-8.64L39.39-8.64Q39.39-9.89 39.65-11.18L39.65-11.18L41.67-21.93L50.40-22.79L48.03-10.28L48.03-10.28Q47.95-9.72 47.82-9.12L47.82-9.12L47.82-9.12Q47.69-8.51 47.69-7.89L47.69-7.89L47.69-7.89Q47.69-7.27 47.90-6.86L47.90-6.86L47.90-6.86Q48.12-6.45 48.42-6.19L48.42-6.19L48.42-6.19Q48.93-5.85 49.86-5.85L49.86-5.85L49.86-5.85Q50.78-5.85 51.58-6.97L51.58-6.97L51.58-6.97Q52.37-8.08 52.76-10.02L52.76-10.02L55.13-21.93L63.60-22.79L60.37-5.89L60.37-5.89Q58.78 2.37 55.51 5.63L55.51 5.63L55.51 5.63Q53.84 7.31 51.66 7.98L51.66 7.98L51.66 7.98Q49.49 8.64 46.70 8.64L46.70 8.64L46.70 8.64Q42.18 8.64 39.60 7.22L39.60 7.22L39.60 7.22Q37.02 5.81 37.02 3.44L37.02 3.44L37.02 3.44Q37.02 1.68 38.36 0.67L38.36 0.67L38.36 0.67Q39.69-0.34 41.75-0.34L41.75-0.34L41.75-0.34Q43.56-0.34 44.94 0.43L44.94 0.43L44.94 0.43Q45.75 0.90 46.14 1.51L46.14 1.51L46.14 1.51Q45.15 2.37 45.15 3.78L45.15 3.78L45.15 3.78Q45.15 5.68 46.87 5.68L46.87 5.68L46.87 5.68Q49.71 5.68 51.34-0.86L51.34-0.86L51.34-0.86Q51.82-2.80 52.25-4.86ZM81.96-28.68L81.96-28.68L81.96-28.68Q92.49-28.68 92.49-21.24L92.49-21.24L92.49-21.24Q92.49-17.16 89.87-14.71L89.87-14.71L89.87-14.71Q87.29-12.26 82.78-12.26L82.78-12.26L82.78-12.26Q80.67-12.26 79.03-13.46L79.03-13.46L79.03-13.46Q78.26-13.98 77.74-14.66L77.74-14.66L77.74-14.66Q80.88-14.66 82.54-16.58L82.54-16.58L82.54-16.58Q84.19-18.49 84.19-22.23L84.19-22.23L84.19-22.23Q84.19-25.97 80.50-25.97L80.50-25.97L79.46-25.97L79.46-25.97Q79.21-25.97 78.99-25.93L78.99-25.93L74.05 0L64.72 0L70.00-28.17L70.00-28.17Q74.61-28.60 77.27-28.64L77.27-28.64L77.27-28.64Q79.94-28.68 81.96-28.68ZM102.08 0.86L102.08 0.86L102.08 0.86Q92.62 0.86 92.62-8.04L92.62-8.04L92.62-8.04Q92.62-14.36 96.11-18.45L96.11-18.45L96.11-18.45Q99.80-22.79 106.21-22.79L106.21-22.79L106.21-22.79Q110.85-22.79 113.22-20.64L113.22-20.64L113.22-20.64Q115.58-18.49 115.58-13.98L115.58-13.98L115.58-13.98Q115.58-7.10 111.89-3.10L111.89-3.10L111.89-3.10Q108.27 0.86 102.08 0.86ZM103.20-17.85L103.20-17.85L103.20-17.85Q102.68-16.68 102.28-14.94L102.28-14.94L102.28-14.94Q101.87-13.20 101.35-10.45L101.35-10.45L101.35-10.45Q100.84-7.70 100.84-4.30L100.84-4.30L100.84-4.30Q100.84-3.18 101.20-2.45L101.20-2.45L101.20-2.45Q101.57-1.72 102.56-1.72L102.56-1.72L102.56-1.72Q103.54-1.72 104.17-2.19L104.17-2.19L104.17-2.19Q104.79-2.67 105.26-3.78L105.26-3.78L105.26-3.78Q106.12-5.76 106.81-9.44L106.81-9.44L106.81-9.44Q107.50-13.12 107.56-14.71L107.56-14.71L107.56-14.71Q107.63-16.30 107.63-17.48L107.63-17.48L107.63-17.48Q107.63-18.66 107.29-19.44L107.29-19.44L107.29-19.44Q106.94-20.21 105.97-20.21L105.97-20.21L105.97-20.21Q105.01-20.21 104.36-19.61L104.36-19.61L104.36-19.61Q103.72-19.01 103.20-17.85ZM131.58-12.08L131.58-12.08L131.58-12.08Q133.13-14.84 133.13-17.63L133.13-17.63L133.13-17.63Q133.13-19.48 131.80-19.48L131.80-19.48L131.80-19.48Q130.76-19.48 129.69-17.72L129.69-17.72L129.69-17.72Q128.57-15.95 128.23-13.67L128.23-13.67L125.99 0L117.09 0.86L121.48-21.93L128.57-22.79L127.80-18.45L127.80-18.45Q129.90-22.79 134.63-22.79L134.63-22.79L134.63-22.79Q137.13-22.79 138.48-21.50L138.48-21.50L138.48-21.50Q139.84-20.21 139.84-17.57L139.84-17.57L139.84-17.57Q139.84-14.92 138.09-13.24L138.09-13.24L138.09-13.24Q136.35-11.57 133.39-11.57L133.39-11.57L133.39-11.57Q132.10-11.57 131.58-12.08ZM141.21-4.30L141.21-4.30L141.21-4.30Q141.21-5.46 141.81-8.39L141.81-8.39L144.09-20.00L141.56-20.00L141.73-21.29L141.73-21.29Q146.89-22.83 151.88-26.62L151.88-26.62L153.94-26.62L152.91-21.93L156.26-21.93L155.88-20.00L152.56-20.00L150.37-8.39L150.37-8.39Q149.81-5.72 149.81-4.82L149.81-4.82L149.81-4.82Q149.81-2.75 151.62-2.32L151.62-2.32L151.62-2.32Q151.19-0.86 149.64 0L149.64 0L149.64 0Q148.09 0.86 145.90 0.86L145.90 0.86L145.90 0.86Q143.71 0.86 142.46-0.52L142.46-0.52L142.46-0.52Q141.21-1.89 141.21-4.30ZM172.82-24.94L172.82-24.94L172.82-24.94Q173.42-25.97 173.42-27.09L173.42-27.09L173.42-27.09Q173.42-29.07 172.22-29.07L172.22-29.07L172.22-29.07Q170.37-29.07 169.59-25.28L169.59-25.28L168.95-21.93L172.86-21.93L172.60-20.00L168.56-20.00L164.69 0L156.00 0.86L160.13-20.00L157.08-20.00L157.47-21.93L160.48-21.93L161.38-25.33L161.38-25.33Q162.15-28.47 165.46-29.93L165.46-29.93L165.46-29.93Q167.87-30.96 171.91-30.96L171.91-30.96L171.91-30.96Q175.96-30.96 177.76-29.93L177.76-29.93L177.76-29.93Q179.57-28.90 179.57-27.52L179.57-27.52L179.57-27.52Q179.57-26.14 178.49-25.28L178.49-25.28L178.49-25.28Q177.42-24.42 176.21-24.42L176.21-24.42L176.21-24.42Q173.85-24.42 172.82-24.94ZM181.50 0.86L181.50 0.86L181.50 0.86Q172.04 0.86 172.04-8.04L172.04-8.04L172.04-8.04Q172.04-14.36 175.53-18.45L175.53-18.45L175.53-18.45Q179.22-22.79 185.63-22.79L185.63-22.79L185.63-22.79Q190.28-22.79 192.64-20.64L192.64-20.64L192.64-20.64Q195.01-18.49 195.01-13.98L195.01-13.98L195.01-13.98Q195.01-7.10 191.31-3.10L191.31-3.10L191.31-3.10Q187.70 0.86 181.50 0.86ZM182.62-17.85L182.62-17.85L182.62-17.85Q182.11-16.68 181.70-14.94L181.70-14.94L181.70-14.94Q181.29-13.20 180.77-10.45L180.77-10.45L180.77-10.45Q180.26-7.70 180.26-4.30L180.26-4.30L180.26-4.30Q180.26-3.18 180.62-2.45L180.62-2.45L180.62-2.45Q180.99-1.72 181.98-1.72L181.98-1.72L181.98-1.72Q182.97-1.72 183.59-2.19L183.59-2.19L183.59-2.19Q184.21-2.67 184.69-3.78L184.69-3.78L184.69-3.78Q185.55-5.76 186.23-9.44L186.23-9.44L186.23-9.44Q186.92-13.12 186.99-14.71L186.99-14.71L186.99-14.71Q187.05-16.30 187.05-17.48L187.05-17.48L187.05-17.48Q187.05-18.66 186.71-19.44L186.71-19.44L186.71-19.44Q186.36-20.21 185.39-20.21L185.39-20.21L185.39-20.21Q184.43-20.21 183.78-19.61L183.78-19.61L183.78-19.61Q183.14-19.01 182.62-17.85ZM207.82-2.37L207.82-2.37L207.82-2.37Q206.49 0.86 202.23 0.86L202.23 0.86L202.23 0.86Q200.08 0.86 198.70-0.65L198.70-0.65L198.70-0.65Q197.59-1.89 197.59-3.31L197.59-3.31L197.59-3.31Q197.59-6.54 199.09-13.59L199.09-13.59L202.23-30.10L210.96-30.96L206.79-9.20L206.79-9.20Q206.06-6.02 206.06-4.90L206.06-4.90L206.06-4.90Q206.06-2.45 207.82-2.37ZM221.79-2.37L221.79-2.37L221.79-2.37Q220.46 0.86 216.20 0.86L216.20 0.86L216.20 0.86Q214.01 0.86 212.64-0.65L212.64-0.65L212.64-0.65Q211.47-1.98 211.47-3.31L211.47-3.31L211.47-3.31Q211.47-6.79 213.07-13.59L213.07-13.59L214.66-21.93L223.39-22.79L220.76-9.20L220.76-9.20Q220.03-6.02 220.03-4.90L220.03-4.90L220.03-4.90Q220.03-2.45 221.79-2.37ZM215.43-27.91L215.43-27.91L215.43-27.91Q215.43-29.58 216.83-30.49L216.83-30.49L216.83-30.49Q218.23-31.39 220.25-31.39L220.25-31.39L220.25-31.39Q222.27-31.39 223.49-30.49L223.49-30.49L223.49-30.49Q224.72-29.58 224.72-27.91L224.72-27.91L224.72-27.91Q224.72-26.23 223.36-25.37L223.36-25.37L223.36-25.37Q222.01-24.51 219.99-24.51L219.99-24.51L219.99-24.51Q217.97-24.51 216.70-25.37L216.70-25.37L216.70-25.37Q215.43-26.23 215.43-27.91ZM234.82 0.86L234.82 0.86L234.82 0.86Q225.36 0.86 225.36-8.04L225.36-8.04L225.36-8.04Q225.36-14.36 228.85-18.45L228.85-18.45L228.85-18.45Q232.54-22.79 238.95-22.79L238.95-22.79L238.95-22.79Q243.60-22.79 245.96-20.64L245.96-20.64L245.96-20.64Q248.33-18.49 248.33-13.98L248.33-13.98L248.33-13.98Q248.33-7.10 244.63-3.10L244.63-3.10L244.63-3.10Q241.02 0.86 234.82 0.86ZM235.94-17.85L235.94-17.85L235.94-17.85Q235.43-16.68 235.02-14.94L235.02-14.94L235.02-14.94Q234.61-13.20 234.09-10.45L234.09-10.45L234.09-10.45Q233.58-7.70 233.58-4.30L233.58-4.30L233.58-4.30Q233.58-3.18 233.94-2.45L233.94-2.45L233.94-2.45Q234.31-1.72 235.30-1.72L235.30-1.72L235.30-1.72Q236.29-1.72 236.91-2.19L236.91-2.19L236.91-2.19Q237.53-2.67 238.01-3.78L238.01-3.78L238.01-3.78Q238.87-5.76 239.55-9.44L239.55-9.44L239.55-9.44Q240.24-13.12 240.31-14.71L240.31-14.71L240.31-14.71Q240.37-16.30 240.37-17.48L240.37-17.48L240.37-17.48Q240.37-18.66 240.03-19.44L240.03-19.44L240.03-19.44Q239.68-20.21 238.71-20.21L238.71-20.21L238.71-20.21Q237.75-20.21 237.10-19.61L237.10-19.61L237.10-19.61Q236.46-19.01 235.94-17.85Z"></path></g></g><style>text {
  font-size: 64px;
  font-family: Arial Black;
  dominant-baseline: central;
  text-anchor: middle;
}</style></svg>