<svg width="338.6375px" height="122px" xmlns="http://www.w3.org/2000/svg" viewBox="80.68125 14 338.6375 122" style="background: rgba(0, 0, 0, 0);" preserveAspectRatio="xMidYMid"><defs><filter id="editing-metal-beveled"><feGaussianBlur stdDeviation="4" in="SourceAlpha" result="blur"></feGaussianBlur><feSpecularLighting surfaceScale="5" specularConstant="0.8" specularExponent="7.5" lighting-color="#fff" in="blur" result="specular"><fePointLight x="-250" y="-50" z="300"></fePointLight></feSpecularLighting><feComposite operator="in" in="specular" in2="SourceAlpha" result="comp"></feComposite><feComposite in="SourceGraphic" in2="comp" operator="arithmetic" k1="0" k2="1" k3="1" k4="0"></feComposite></filter></defs><g filter="url(#editing-metal-beveled)"><g transform="translate(133.3988162279129, 103.19000244140625)"><path d="M26.05-29.57L26.05-29.57L26.05-29.57Q27.01-31.49 27.01-33.28L27.01-33.28L27.01-33.28Q27.01-35.07 26.82-36.06L26.82-36.06L26.82-36.06Q26.62-37.06 26.18-37.82L26.18-37.82L26.18-37.82Q25.22-39.49 23.30-39.49L23.30-39.49L23.30-39.49Q20.93-39.49 19.01-37.76L19.01-37.76L19.01-37.76Q16.96-35.97 16.96-33.15L16.96-33.15L16.96-33.15Q16.96-31.36 18.21-29.98L18.21-29.98L18.21-29.98Q19.46-28.61 21.38-27.33L21.38-27.33L21.38-27.33Q23.30-26.05 25.47-24.77L25.47-24.77L25.47-24.77Q27.65-23.49 29.57-21.95L29.57-21.95L29.57-21.95Q33.98-18.43 33.98-13.70L33.98-13.70L33.98-13.70Q33.98-10.50 32.29-7.78L32.29-7.78L32.29-7.78Q30.59-5.06 27.78-3.07L27.78-3.07L27.78-3.07Q21.63 1.28 13.50 1.28L13.50 1.28L13.50 1.28Q6.91 1.28 3.52-0.86L3.52-0.86L3.52-0.86Q0.13-3.01 0.13-6.27L0.13-6.27L0.13-6.27Q0.13-12.10 4.67-13.57L4.67-13.57L4.67-13.57Q5.95-14.02 7.90-14.02L7.90-14.02L7.90-14.02Q9.86-14.02 12.10-13.18L12.10-13.18L12.10-13.18Q11.07-10.56 11.07-8.19L11.07-8.19L11.07-8.19Q11.07-3.07 14.72-3.07L14.72-3.07L14.72-3.07Q17.09-3.07 19.04-4.80L19.04-4.80L19.04-4.80Q20.99-6.53 20.99-8.48L20.99-8.48L20.99-8.48Q20.99-10.43 19.74-11.84L19.74-11.84L19.74-11.84Q18.50-13.25 16.64-14.37L16.64-14.37L16.64-14.37Q14.78-15.49 12.64-16.58L12.64-16.58L12.64-16.58Q10.50-17.66 8.64-19.20L8.64-19.20L8.64-19.20Q4.29-22.72 4.29-28.35L4.29-28.35L4.29-28.35Q4.29-32 6.08-34.85L6.08-34.85L6.08-34.85Q7.87-37.70 10.75-39.62L10.75-39.62L10.75-39.62Q16.51-43.52 23.58-43.52L23.58-43.52L23.58-43.52Q30.66-43.52 34.08-41.41L34.08-41.41L34.08-41.41Q37.50-39.30 37.50-35.71L37.50-35.71L37.50-35.71Q37.50-32.58 35.07-30.59L35.07-30.59L35.07-30.59Q32.96-28.93 30.40-28.93L30.40-28.93L30.40-28.93Q27.84-28.93 26.05-29.57ZM86.59-10.69L86.59-10.69Q82.37-4.86 78.30-1.79L78.30-1.79L78.30-1.79Q74.24 1.28 70.05 1.28L70.05 1.28L70.05 1.28Q65.86 1.28 64.38 0.45L64.38 0.45L64.38-13.63L64.38-13.63Q60.74-3.90 54.21-0.13L54.21-0.13L54.21-0.13Q51.84 1.28 49.60 1.28L49.60 1.28L49.60 1.28Q45.31 1.28 43.46 0.45L43.46 0.45L43.46 0.45Q43.01-14.21 42.62-18.27L42.62-18.27L42.62-18.27Q42.24-22.34 41.92-24.83L41.92-24.83L41.92-24.83Q41.28-29.82 39.10-31.87L39.10-31.87L39.10-31.87Q41.86-33.92 45.70-33.92L45.70-33.92L45.70-33.92Q53.12-33.92 54.14-24.70L54.14-24.70L54.14-24.70Q54.40-22.53 54.40-20.22L54.40-20.22L54.40-20.22Q54.40-16.77 53.63-4.74L53.63-4.74L53.63-4.74Q55.17-5.44 56.80-7.97L56.80-7.97L56.80-7.97Q58.43-10.50 59.78-13.95L59.78-13.95L59.78-13.95Q62.78-21.95 62.78-28.86L62.78-28.86L62.78-28.86Q62.78-29.95 62.50-31.10L62.50-31.10L62.50-31.10Q62.21-32.26 61.89-32.58L61.89-32.58L61.89-32.58Q64.13-33.92 67.55-33.92L67.55-33.92L67.55-33.92Q70.98-33.92 72.61-31.58L72.61-31.58L72.61-31.58Q74.24-29.25 74.69-24.96L74.69-24.96L74.69-24.96Q75.20-19.52 75.20-16.26L75.20-16.26L75.20-16.26Q75.20-11.71 74.75-4.99L74.75-4.99L74.75-4.99Q77.95-7.30 80.58-14.85L80.58-14.85L80.58-14.85Q83.20-22.40 83.20-27.78L83.20-27.78L83.20-27.78Q83.20-30.14 82.82-31.55L82.82-31.55L82.82-31.55Q84.93-33.92 88.58-33.92L88.58-33.92L88.58-33.92Q90.82-33.92 92.45-32.70L92.45-32.70L92.45-32.70Q94.08-31.49 94.08-29.22L94.08-29.22L94.08-29.22Q94.08-26.94 93.41-24.51L93.41-24.51L93.41-24.51Q92.74-22.08 91.65-19.58L91.65-19.58L91.65-19.58Q89.54-14.59 86.59-10.69L86.59-10.69ZM98.59-1.92L98.59-1.92L98.59-1.92Q97.09-3.58 96.42-6.21L96.42-6.21L96.42-6.21Q95.74-8.83 95.74-13.12L95.74-13.12L95.74-13.12Q95.74-17.41 97.22-21.31L97.22-21.31L97.22-21.31Q98.69-25.22 101.38-28.03L101.38-28.03L101.38-28.03Q106.88-33.92 115.97-33.92L115.97-33.92L115.97-33.92Q119.23-33.92 121.60-32.83L121.60-32.83L132.54-33.92L127.81-8.96L127.81-8.96Q127.62-8.19 127.62-6.78L127.62-6.78L127.62-6.78Q127.62-5.38 128.48-4.48L128.48-4.48L128.48-4.48Q129.34-3.58 130.62-3.46L130.62-3.46L130.62-3.46Q129.98-1.28 127.65 0L127.65 0L127.65 0Q125.31 1.28 122.69 1.28L122.69 1.28L122.69 1.28Q120.06 1.28 118.30 0.29L118.30 0.29L118.30 0.29Q116.54-0.70 116.03-2.37L116.03-2.37L116.03-2.37Q115.01-0.77 112.83 0.26L112.83 0.26L112.83 0.26Q110.66 1.28 107.74 1.28L107.74 1.28L107.74 1.28Q104.83 1.28 102.46 0.51L102.46 0.51L102.46 0.51Q100.10-0.26 98.59-1.92ZM112.10-27.90L112.10-27.90L112.10-27.90Q111.36-26.75 110.72-24.80L110.72-24.80L110.72-24.80Q110.08-22.85 109.02-17.63L109.02-17.63L109.02-17.63Q107.97-12.42 107.97-8.70L107.97-8.70L107.97-8.70Q107.97-4.99 108.54-3.90L108.54-3.90L108.54-3.90Q109.12-2.82 110.14-2.82L110.14-2.82L110.14-2.82Q112.19-2.82 113.70-4.77L113.70-4.77L113.70-4.77Q115.20-6.72 115.78-10.18L115.78-10.18L119.17-28.93L119.17-28.93Q117.82-30.08 116.26-30.08L116.26-30.08L116.26-30.08Q114.69-30.08 113.76-29.57L113.76-29.57L113.76-29.57Q112.83-29.06 112.10-27.90ZM182.08 1.28L182.08 1.28L182.08 1.28Q174.34 1.28 174.34-4.74L174.34-4.74L174.34-4.74Q174.34-7.36 175.46-12.45L175.46-12.45L175.46-12.45Q176.58-17.54 176.96-19.58L176.96-19.58L176.96-19.58Q177.86-24.26 177.86-25.73L177.86-25.73L177.86-25.73Q177.86-28.99 175.42-28.99L175.42-28.99L175.42-28.99Q173.82-28.99 172.29-26.78L172.29-26.78L172.29-26.78Q170.75-24.58 170.05-20.16L170.05-20.16L166.08 0L153.60 1.28L157.06-16.13L157.06-16.13Q157.63-19.01 158.14-22.27L158.14-22.27L158.14-22.27Q158.66-25.54 158.66-26.05L158.66-26.05L158.66-26.05Q158.66-28.99 156.48-28.99L156.48-28.99L156.48-28.99Q155.01-28.99 153.41-26.82L153.41-26.82L153.41-26.82Q151.81-24.64 150.91-20.16L150.91-20.16L147.01 0L134.40 1.28L141.12-32.64L151.55-33.92L150.46-27.46L150.46-27.46Q152.13-30.91 155.20-32.42L155.20-32.42L155.20-32.42Q158.27-33.92 163.07-33.92L163.07-33.92L163.07-33.92Q165.82-33.92 167.62-32.58L167.62-32.58L167.62-32.58Q169.41-31.23 169.98-29.06L169.98-29.06L169.98-29.06Q171.07-31.30 173.86-32.61L173.86-32.61L173.86-32.61Q176.64-33.92 180.06-33.92L180.06-33.92L180.06-33.92Q183.49-33.92 185.18-33.18L185.18-33.18L185.18-33.18Q186.88-32.45 187.90-31.23L187.90-31.23L187.90-31.23Q189.63-28.99 189.63-24.90L189.63-24.90L189.63-24.90Q189.63-20.86 187.90-12.48L187.90-12.48L187.90-12.48Q187.01-8.38 187.01-6.88L187.01-6.88L187.01-6.88Q187.01-5.38 187.87-4.48L187.87-4.48L187.87-4.48Q188.74-3.58 190.02-3.46L190.02-3.46L190.02-3.46Q189.38-1.28 187.17 0L187.17 0L187.17 0Q184.96 1.28 182.08 1.28ZM215.30-7.23L215.30-7.23L215.30-7.23Q211.97-3.78 205.89-3.78L205.89-3.78L205.89-3.78Q198.27-3.78 196.67-9.34L196.67-9.34L196.67-9.34Q196.16-11.01 196.16-12.86L196.16-12.86L196.16-12.86Q196.16-14.72 196.54-16.64L196.54-16.64L199.55-32.64L212.54-33.92L209.02-15.30L209.02-15.30Q208.90-14.46 208.70-13.57L208.70-13.57L208.70-13.57Q208.51-12.67 208.51-11.74L208.51-11.74L208.51-11.74Q208.51-10.82 208.83-10.21L208.83-10.21L208.83-10.21Q209.15-9.60 209.60-9.22L209.60-9.22L209.60-9.22Q210.37-8.70 211.74-8.70L211.74-8.70L211.74-8.70Q213.12-8.70 214.30-10.37L214.30-10.37L214.30-10.37Q215.49-12.03 216.06-14.91L216.06-14.91L219.58-32.64L232.19-33.92L227.39-8.77L227.39-8.77Q225.02 3.52 220.16 8.38L220.16 8.38L220.16 8.38Q217.66 10.88 214.43 11.87L214.43 11.87L214.43 11.87Q211.20 12.86 207.04 12.86L207.04 12.86L207.04 12.86Q200.32 12.86 196.48 10.75L196.48 10.75L196.48 10.75Q192.64 8.64 192.64 5.12L192.64 5.12L192.64 5.12Q192.64 2.50 194.62 0.99L194.62 0.99L194.62 0.99Q196.61-0.51 199.68-0.51L199.68-0.51L199.68-0.51Q202.37-0.51 204.42 0.64L204.42 0.64L204.42 0.64Q205.63 1.34 206.21 2.24L206.21 2.24L206.21 2.24Q204.74 3.52 204.74 5.63L204.74 5.63L204.74 5.63Q204.74 8.45 207.30 8.45L207.30 8.45L207.30 8.45Q211.52 8.45 213.95-1.28L213.95-1.28L213.95-1.28Q214.66-4.16 215.30-7.23Z" fill="#444"></path></g></g><style>text {
  font-size: 64px;
  font-family: Arial Black;
  dominant-baseline: central;
  text-anchor: middle;
}</style></svg>